<svg viewBox="0 0 1024 1024" xmlns="http://www.w3.org/2000/svg">
  <path fill="currentColor" d="M512 96C282 96 96 282 96 512c0 184 119 340 284 395 21 4 28-9 28-20v-72c-116 25-140-50-140-50-19-48-46-61-46-61-38-26 3-25 3-25 42 3 64 43 64 43 37 63 98 45 122 34 4-27 15-45 27-55-93-11-190-46-190-205 0-45 16-82 43-111-4-11-19-56 4-110 0 0 35-11 114 42 33-9 68-14 103-14s70 5 103 14c79-53 114-42 114-42 23 54 8 99 4 110 27 29 43 66 43 111 0 159-98 194-191 205 15 13 29 39 29 78v116c0 11 7 24 29 20 164-55 283-211 283-395C928 282 742 96 512 96Z"/>
</svg>
