<svg viewBox="0 0 1024 1024" xmlns="http://www.w3.org/2000/svg">
  <path fill="currentColor" d="M384 224c-159 0-288 103-288 230 0 73 43 138 110 180l-30 90 104-52c32 8 67 12 104 12 159 0 288-103 288-230S543 224 384 224Zm-96 144a40 40 0 1 1 0 80 40 40 0 0 1 0-80Zm192 0a40 40 0 1 1 0 80 40 40 0 0 1 0-80Zm160 208c-24 130-153 228-309 228-15 0-29-1-43-3 52 45 126 73 208 73 32 0 63-4 91-12l91 45-26-78c59-36 96-92 96-154 0-40-15-78-42-110-21 6-43 10-66 11Zm64 64a34 34 0 1 1 0 68 34 34 0 0 1 0-68Zm-176 0a34 34 0 1 1 0 68 34 34 0 0 1 0-68Z"/>
</svg>
