<svg viewBox="0 0 1024 1024" xmlns="http://www.w3.org/2000/svg">
  <path fill="currentColor" d="M664 160c92 0 168 75 168 168h-80c0-49-39-88-88-88v-80Zm0 128c22 0 40 18 40 40h-72c0-18 14-34 32-40ZM448 416c176 0 320 91 320 204S624 824 448 824 128 733 128 620s144-204 320-204Zm-64 104c-88 0-160 45-160 100s72 100 160 100 160-45 160-100-72-100-160-100Zm-32 48a48 48 0 1 1 0 96 48 48 0 0 1 0-96Zm256-272c34 0 64 14 86 36 24-11 51-16 78-16 68 0 124 56 124 124 0 45-24 85-61 107-9-31-27-59-52-82 19-6 33-24 33-45 0-26-22-48-48-48-17 0-32 9-41 22-30-15-64-22-100-22-18 0-36 2-54 6 2-6 3-12 3-18 0-35-29-64-64-64-42 0-80 36-116 108-35 3-68 9-100 18 58-137 126-206 204-206Z"/>
</svg>
